name C:/MyDriveSym/Projects/mobilecap/Data\Session20210820_0002\mocap\ForceDataProcessed\walking2_forces.mot
datacolumns 19
datarows 17
range 1.01950000 1.02750000
endheader 
time	R_ground_force_vx	R_ground_force_vy	R_ground_force_vz	R_ground_force_px	R_ground_force_py	R_ground_force_pz	R_ground_torque_x	R_ground_torque_y	R_ground_torque_z	L_ground_force_vx	L_ground_force_vy	L_ground_force_vz	L_ground_force_px	L_ground_force_py	L_ground_force_pz	L_ground_torque_x	L_ground_torque_y	L_ground_torque_z	
          1.01950000	          0.00000000	          0.00000000	          0.00000000	          1.32020900	          0.00000000	         -0.12404900	          0.00000000	          0.00000000	          0.00000000	         32.31604300	        837.91910400	         40.64833000	          0.98344200	          0.00600000	         -0.26256800	          0.00000000	          6.51836700	          0.00000000	
          1.02000000	          0.00000000	          0.00000000	          0.00000000	          1.32156400	          0.00000000	         -0.12400200	          0.00000000	          0.00000000	          0.00000000	         32.56366700	        839.02798500	         40.74550800	          0.98379600	          0.00600000	         -0.26255600	          0.00000000	          6.52269900	          0.00000000	
          1.02050000	          0.00000000	          0.00000000	          0.00000000	          1.32291900	          0.00000000	         -0.12395500	          0.00000000	          0.00000000	          0.00000000	         32.81158300	        840.13970400	         40.84363200	          0.98415000	          0.00600000	         -0.26254500	          0.00000000	          6.52673200	          0.00000000	
          1.02100000	          0.00000000	          0.00000000	          0.00000000	          1.32427400	          0.00000000	         -0.12390700	          0.00000000	          0.00000000	          0.00000000	         33.05974500	        841.25410300	         40.94268800	          0.98450400	          0.00600000	         -0.26253400	          0.00000000	          6.53043600	          0.00000000	
          1.02150000	          0.00000000	          0.00000000	          0.00000000	          1.32562800	          0.00000000	         -0.12386000	          0.00000000	          0.00000000	          0.00000000	         33.30811600	        842.37101200	         41.04265400	          0.98485700	          0.00600000	         -0.26252400	          0.00000000	          6.53377900	          0.00000000	
          1.02200000	          0.00000000	          0.00000000	          0.00000000	          1.32698300	          0.00000000	         -0.12381300	          0.00000000	          0.00000000	          0.00000000	         33.55667100	        843.49027000	         41.14350900	          0.98521100	          0.00600000	         -0.26251400	          0.00000000	          6.53673000	          0.00000000	
          1.02250000	          0.00000000	          0.00000000	          0.00000000	          1.32833800	          0.00000000	         -0.12376600	          0.00000000	          0.00000000	          0.00000000	         33.80539100	        844.61173700	         41.24522800	          0.98556400	          0.00600000	         -0.26250400	          0.00000000	          6.53926400	          0.00000000	
          1.02300000	          0.00000000	          0.00000000	          0.00000000	          1.32969300	          0.00000000	         -0.12371800	          0.00000000	          0.00000000	          0.00000000	         34.05426800	        845.73531300	         41.34777800	          0.98591700	          0.00600000	         -0.26249500	          0.00000000	          6.54135900	          0.00000000	
          1.02350000	          0.00000000	          0.00000000	          0.00000000	          1.33104700	          0.00000000	         -0.12367100	          0.00000000	          0.00000000	          0.00000000	         34.30329800	        846.86095000	         41.45110900	          0.98626900	          0.00600000	         -0.26248700	          0.00000000	          6.54300100	          0.00000000	
          1.02400000	          0.00000000	          0.00000000	          0.00000000	          1.33240200	          0.00000000	         -0.12362400	          0.00000000	          0.00000000	          0.00000000	         34.55248300	        847.98865300	         41.55513800	          0.98662100	          0.00600000	         -0.26247900	          0.00000000	          6.54418600	          0.00000000	
          1.02450000	          0.00000000	          0.00000000	          0.00000000	          1.33375700	          0.00000000	         -0.12357700	          0.00000000	          0.00000000	          0.00000000	         34.80184600	        849.11849000	         41.65974300	          0.98697300	          0.00600000	         -0.26247100	          0.00000000	          6.54491700	          0.00000000	
          1.02500000	          0.00000000	          0.00000000	          0.00000000	          1.33511200	          0.00000000	         -0.12352900	          0.00000000	          0.00000000	          0.00000000	         35.05143000	        850.25057900	         41.76477000	          0.98732400	          0.00600000	         -0.26246400	          0.00000000	          6.54519800	          0.00000000	
          1.02550000	          0.00000000	          0.00000000	          0.00000000	          1.33646600	          0.00000000	         -0.12348200	          0.00000000	          0.00000000	          0.00000000	         35.30130300	        851.38507800	         41.87004300	          0.98767500	          0.00600000	         -0.26245600	          0.00000000	          6.54504200	          0.00000000	
          1.02600000	          0.00000000	          0.00000000	          0.00000000	          1.33782100	          0.00000000	         -0.12343500	          0.00000000	          0.00000000	          0.00000000	         35.55154400	        852.52216600	         41.97535800	          0.98802500	          0.00600000	         -0.26244900	          0.00000000	          6.54446300	          0.00000000	
          1.02650000	          0.00000000	          0.00000000	          0.00000000	          1.33917600	          0.00000000	         -0.12338800	          0.00000000	          0.00000000	          0.00000000	         35.80224500	        853.66202100	         42.08048200	          0.98837400	          0.00600000	         -0.26244200	          0.00000000	          6.54348000	          0.00000000	
          1.02700000	          0.00000000	          0.00000000	          0.00000000	          1.34053100	          0.00000000	         -0.12334000	          0.00000000	          0.00000000	          0.00000000	         36.05351300	        854.80481500	         42.18516200	          0.98872300	          0.00600000	         -0.26243500	          0.00000000	          6.54211400	          0.00000000	
          1.02750000	          0.00000000	          0.00000000	          0.00000000	          1.34188600	          0.00000000	         -0.12329300	          0.00000000	          0.00000000	          0.00000000	         36.30547500	        855.95071900	         42.28912900	          0.98907100	          0.00600000	         -0.26242800	          0.00000000	          6.54039800	          0.00000000	
